<?xml version="1.0" encoding="UTF-8" standalone="no"?>
<!-- Created with Inkscape (http://www.inkscape.org/) -->

<svg
   width="128"
   height="128"
   viewBox="0 0 33.866666 33.866666"
   version="1.1"
   id="svg1"
   sodipodi:docname="dss-ikon.svg"
   inkscape:version="1.3 (0e150ed6c4, 2023-07-21)"
   xmlns:inkscape="http://www.inkscape.org/namespaces/inkscape"
   xmlns:sodipodi="http://sodipodi.sourceforge.net/DTD/sodipodi-0.dtd"
   xmlns="http://www.w3.org/2000/svg"
   xmlns:svg="http://www.w3.org/2000/svg">
  <sodipodi:namedview
     id="namedview1"
     pagecolor="#ffffff"
     bordercolor="#000000"
     borderopacity="0.25"
     inkscape:showpageshadow="2"
     inkscape:pageopacity="0.0"
     inkscape:pagecheckerboard="true"
     inkscape:deskcolor="#d1d1d1"
     inkscape:document-units="px"
     inkscape:zoom="5.9366442"
     inkscape:cx="63.166999"
     inkscape:cy="56.681854"
     inkscape:window-width="1920"
     inkscape:window-height="1009"
     inkscape:window-x="-8"
     inkscape:window-y="-8"
     inkscape:window-maximized="1"
     inkscape:current-layer="layer1" />
  <defs
     id="defs1" />
  <g
     inkscape:label="Layer 1"
     inkscape:groupmode="layer"
     id="layer1">
    <rect
       style="fill:#ffffff;fill-opacity:1;stroke:none;stroke-width:0.26"
       id="rect2"
       width="33.866665"
       height="33.866665"
       x="0"
       y="0"
       ry="16.933332" />
    <path
       id="circle1"
       style="fill:#e48c8c;fill-opacity:1;stroke:none;stroke-width:0.240527"
       d="M 16.933333 5.2415404 A 10.728661 10.728661 0 0 0 6.2047891 15.970084 A 10.728661 10.728661 0 0 0 6.5024453 18.36322 L 27.364221 18.36322 A 10.728661 10.728661 0 0 0 27.661877 15.970084 A 10.728661 10.728661 0 0 0 16.933333 5.2415404 z M 16.96899 13.971757 A 1.9052746 1.9052746 0 0 1 18.8743 15.877067 A 1.9052746 1.9052746 0 0 1 16.96899 17.782377 A 1.9052746 1.9052746 0 0 1 15.06368 15.877067 A 1.9052746 1.9052746 0 0 1 16.96899 13.971757 z " />
    <path
       id="circle5"
       style="fill:#cc8ce4;fill-opacity:1;stroke:none;stroke-width:0.240527"
       d="M 16.933333 5.2415404 A 10.728661 10.728661 0 0 0 8.3545286 9.5735757 L 15.388208 14.818217 A 1.9052746 1.9052746 0 0 1 16.96899 13.971757 A 1.9052746 1.9052746 0 0 1 17.944124 14.240474 L 22.343855 6.7086343 A 10.728661 10.728661 0 0 0 16.933333 5.2415404 z " />
    <path
       id="circle4"
       style="fill:#8ce4d9;fill-opacity:1;stroke:#ffffff;stroke-width:0.240527"
       d="M 11.782226 6.5902953 A 10.728661 10.728661 0 0 0 6.2047891 15.970084 A 10.728661 10.728661 0 0 0 6.3096923 17.437178 L 15.099853 16.223299 A 1.9052746 1.9052746 0 0 1 15.06368 15.877067 A 1.9052746 1.9052746 0 0 1 15.987654 14.248226 L 11.782226 6.5902953 z " />
    <path
       style="fill:none;fill-opacity:1;stroke:#8ce4e2;stroke-width:0.234285;stroke-opacity:1"
       d="M 6.1967947,28.446265 17.33713,22.079483 27.66987,23.404758 27.364441,18.363246"
       id="path8"
       sodipodi:nodetypes="cccc" />
    <path
       style="fill:none;fill-opacity:1;stroke:#e0e48c;stroke-width:0.234285;stroke-opacity:1"
       d="m 6.1967947,28.446265 5.1163593,-4.706579 4.036025,2.208792 8.011928,-7.030173"
       id="path9" />
    <rect
       style="fill:none;fill-opacity:1;stroke:#b3b3b3;stroke-width:0.238414;stroke-dasharray:0.715244, 0.715244;stroke-dashoffset:0;stroke-opacity:1"
       id="rect9"
       width="5.1163588"
       height="4.7065797"
       x="6.1967945"
       y="23.739687" />
    <rect
       style="fill:none;fill-opacity:1;stroke:#b3b3b3;stroke-width:0.240025;stroke-dasharray:0.720075, 0.720075;stroke-dashoffset:0;stroke-opacity:1"
       id="rect9-6"
       width="10.976179"
       height="6.2892513"
       x="6.2788725"
       y="22.16156" />
    <rect
       style="fill:none;fill-opacity:1;stroke:#b3b3b3;stroke-width:0.240592;stroke-dasharray:0.721781, 0.721781;stroke-dashoffset:0;stroke-opacity:1"
       id="rect9-9"
       width="9.1151705"
       height="2.4605732"
       x="6.1967945"
       y="25.985691" />
    <rect
       style="fill:none;fill-opacity:1;stroke:#000000;stroke-width:0.357622;stroke-dasharray:none"
       id="rect7"
       width="21.473076"
       height="10.083014"
       x="6.1967945"
       y="18.363251" />
    <rect
       style="fill:#62466d;fill-opacity:1;stroke:none;stroke-width:0.136242"
       id="rect5"
       width="25.840502"
       height="2.9493914"
       x="4.0130816"
       y="16.783173"
       ry="1.3252748" />
    <rect
       style="fill:#62466d;fill-opacity:1;stroke:none;stroke-width:0.081179"
       id="rect6"
       width="9.1741667"
       height="2.9493914"
       x="12.34625"
       y="18.257868"
       ry="1.3252748" />
    <circle
       style="fill:#000000;fill-opacity:1;stroke:none;stroke-width:0.238414;stroke-dasharray:0.715244, 0.715244;stroke-dashoffset:0;stroke-opacity:1"
       id="path10-8"
       cx="17.375063"
       cy="22.041548"
       r="0.34135899" />
    <circle
       style="fill:#000000;fill-opacity:1;stroke:none;stroke-width:0.238414;stroke-dasharray:0.715244, 0.715244;stroke-dashoffset:0;stroke-opacity:1"
       id="path10"
       cx="11.432362"
       cy="23.62048"
       r="0.34135899" />
    <circle
       style="fill:#000000;fill-opacity:1;stroke:none;stroke-width:0.238414;stroke-dasharray:0.715244, 0.715244;stroke-dashoffset:0;stroke-opacity:1"
       id="path10-2"
       cx="15.432261"
       cy="25.865396"
       r="0.34135899" />
    <path
       id="circle3"
       style="fill:#8e8ce4;fill-opacity:1;stroke:#000000;stroke-width:0.248973"
       d="M 19.36614,5.1274821 16.939727,15.961024 26.232299,9.8839066 A 11.105392,11.105392 0 0 0 19.36614,5.1274821 Z" />
  </g>
</svg>
